<svg width="119" height="118" viewBox="0 0 119 118" fill="none" xmlns="http://www.w3.org/2000/svg">
    <g opacity="0.12">
        <path d="M4.90728 4.90064C4.24495 5.12141 3.64569 5.79006 3.50692 6.46501C3.23567 7.76445 4.53511 9.06389 5.83455 8.79264C6.81228 8.59079 7.56924 7.59413 7.47462 6.65425C7.40523 5.99191 6.9069 5.31065 6.27611 5.00156C5.89132 4.81863 5.29838 4.77448 4.90728 4.90064Z" fill="#172646"/>
        <path d="M16.7078 4.90112C15.7554 5.21649 15.112 6.26351 15.3075 7.18438C15.4652 7.93496 16.1653 8.63507 16.9096 8.79276C18.1332 9.05136 19.401 7.89711 19.2749 6.65456C19.2055 5.99229 18.7072 5.3111 18.0765 5.00204C17.6917 4.81912 17.0988 4.77497 16.7078 4.90112Z" fill="#172646"/>
        <path d="M28.5074 4.90064C27.845 5.12141 27.2458 5.79006 27.107 6.46501C26.8358 7.76445 28.1352 9.06389 29.4347 8.79264C30.4124 8.59079 31.1693 7.59413 31.0747 6.65425C31.0053 5.99191 30.507 5.31065 29.8762 5.00156C29.4914 4.81863 28.8985 4.77448 28.5074 4.90064Z" fill="#172646"/>
        <path d="M40.3072 4.90064C39.6449 5.12141 39.0456 5.79006 38.9068 6.46501C38.6356 7.76445 39.935 9.06389 41.2345 8.79264C42.2122 8.59079 42.9691 7.59413 42.8745 6.65425C42.8051 5.99191 42.3068 5.31065 41.676 5.00156C41.2912 4.81863 40.6983 4.77448 40.3072 4.90064Z" fill="#172646"/>
        <path d="M52.1075 4.90064C51.4451 5.12141 50.8459 5.79006 50.7071 6.46501C50.4359 7.76445 51.7353 9.06389 53.0347 8.79264C54.0125 8.59079 54.7694 7.59413 54.6748 6.65425C54.6054 5.99191 54.1071 5.31065 53.4763 5.00156C53.0915 4.81863 52.4986 4.77448 52.1075 4.90064Z" fill="#172646"/>
        <path d="M63.9073 4.90064C63.2449 5.12141 62.6457 5.79006 62.5069 6.46501C62.2357 7.76445 63.5351 9.06389 64.8345 8.79264C65.8123 8.59079 66.5692 7.59413 66.4746 6.65425C66.4052 5.99191 65.9069 5.31065 65.2761 5.00156C64.8913 4.81863 64.2984 4.77448 63.9073 4.90064Z" fill="#172646"/>
        <path d="M75.7071 4.90064C75.0448 5.12141 74.4455 5.79006 74.3067 6.46501C74.0355 7.76445 75.3349 9.06389 76.6344 8.79264C77.6121 8.59079 78.3691 7.59413 78.2744 6.65425C78.2051 5.99191 77.7067 5.31065 77.0759 5.00156C76.6911 4.81863 76.0982 4.77448 75.7071 4.90064Z" fill="#172646"/>
        <path d="M87.5074 4.90064C86.845 5.12141 86.2458 5.79006 86.107 6.46501C85.8358 7.76445 87.1352 9.06389 88.4347 8.79264C89.4124 8.59079 90.1694 7.59413 90.0747 6.65425C90.0053 5.99191 89.507 5.31065 88.8762 5.00156C88.4914 4.81863 87.8985 4.77448 87.5074 4.90064Z" fill="#172646"/>
        <path d="M99.302 4.91645C98.6421 5.13642 98.045 5.80263 97.9067 6.47512C97.7496 7.21046 98.1078 8.00865 98.7992 8.48002C99.4717 8.94511 100.238 8.9514 100.917 8.49888C102.03 7.75725 102.181 6.37456 101.25 5.45067C100.716 4.91016 99.9493 4.70276 99.302 4.91645Z" fill="#172646"/>
        <path d="M111.102 4.91645C110.442 5.13642 109.845 5.80263 109.707 6.47512C109.549 7.21046 109.908 8.00865 110.599 8.48002C111.271 8.94511 112.038 8.9514 112.717 8.49888C113.829 7.75725 113.98 6.37456 113.05 5.45067C112.516 4.91016 111.749 4.70276 111.102 4.91645Z" fill="#172646"/>
        <path d="M4.90728 16.7007C4.24495 16.9215 3.64569 17.5901 3.50692 18.2651C3.23567 19.5645 4.53511 20.8639 5.83455 20.5927C6.81229 20.3908 7.56924 19.3942 7.47462 18.4543C7.40524 17.792 6.90691 17.1107 6.27611 16.8016C5.89133 16.6187 5.29838 16.5745 4.90728 16.7007Z" fill="#172646"/>
        <path d="M16.7078 16.7012C15.7554 17.0165 15.112 18.0636 15.3075 18.9844C15.4652 19.735 16.1653 20.4351 16.9096 20.5928C18.1332 20.8514 19.401 19.6972 19.2749 18.4546C19.2055 17.7923 18.7072 17.1111 18.0765 16.8021C17.6917 16.6192 17.0988 16.575 16.7078 16.7012Z" fill="#172646"/>
        <path d="M28.5074 16.7007C27.845 16.9215 27.2458 17.5901 27.107 18.2651C26.8358 19.5645 28.1352 20.8639 29.4347 20.5927C30.4124 20.3908 31.1693 19.3942 31.0747 18.4543C31.0053 17.792 30.507 17.1107 29.8762 16.8016C29.4914 16.6187 28.8985 16.5745 28.5074 16.7007Z" fill="#172646"/>
        <path d="M40.3072 16.7007C39.6449 16.9215 39.0456 17.5901 38.9068 18.2651C38.6356 19.5645 39.935 20.8639 41.2345 20.5927C42.2122 20.3908 42.9691 19.3942 42.8745 18.4543C42.8051 17.792 42.3068 17.1107 41.676 16.8016C41.2912 16.6187 40.6983 16.5745 40.3072 16.7007Z" fill="#172646"/>
        <path d="M52.1075 16.7007C51.4451 16.9215 50.8459 17.5901 50.7071 18.2651C50.4359 19.5645 51.7353 20.8639 53.0347 20.5927C54.0125 20.3908 54.7694 19.3942 54.6748 18.4543C54.6054 17.792 54.1071 17.1107 53.4763 16.8016C53.0915 16.6187 52.4986 16.5745 52.1075 16.7007Z" fill="#172646"/>
        <path d="M63.9073 16.7007C63.2449 16.9215 62.6457 17.5901 62.5069 18.2651C62.2357 19.5645 63.5351 20.8639 64.8345 20.5927C65.8123 20.3908 66.5692 19.3942 66.4746 18.4543C66.4052 17.792 65.9069 17.1107 65.2761 16.8016C64.8913 16.6187 64.2984 16.5745 63.9073 16.7007Z" fill="#172646"/>
        <path d="M75.7071 16.7007C75.0448 16.9215 74.4455 17.5901 74.3067 18.2651C74.0355 19.5645 75.3349 20.8639 76.6344 20.5927C77.6121 20.3908 78.3691 19.3942 78.2744 18.4543C78.2051 17.792 77.7067 17.1107 77.0759 16.8016C76.6911 16.6187 76.0982 16.5745 75.7071 16.7007Z" fill="#172646"/>
        <path d="M87.5074 16.7007C86.845 16.9215 86.2458 17.5901 86.107 18.2651C85.8358 19.5645 87.1352 20.8639 88.4347 20.5927C89.4124 20.3908 90.1694 19.3942 90.0747 18.4543C90.0053 17.792 89.507 17.1107 88.8762 16.8016C88.4914 16.6187 87.8985 16.5745 87.5074 16.7007Z" fill="#172646"/>
        <path d="M99.302 16.7164C98.6421 16.9363 98.045 17.6026 97.9067 18.275C97.7496 19.0104 98.1078 19.8086 98.7992 20.28C99.4717 20.745 100.238 20.7513 100.917 20.2988C102.03 19.5572 102.181 18.1745 101.25 17.2506C100.716 16.7101 99.9493 16.5027 99.302 16.7164Z" fill="#172646"/>
        <path d="M111.102 16.7164C110.442 16.9363 109.845 17.6026 109.707 18.275C109.549 19.0104 109.908 19.8086 110.599 20.28C111.271 20.745 112.038 20.7513 112.717 20.2988C113.829 19.5572 113.98 18.1745 113.05 17.2506C112.516 16.7101 111.749 16.5027 111.102 16.7164Z" fill="#172646"/>
        <path d="M4.90728 28.5005C4.24495 28.7213 3.64569 29.3899 3.50692 30.0649C3.23568 31.3643 4.53511 32.6637 5.83454 32.3925C6.81227 32.1906 7.56923 31.194 7.47461 30.2541C7.40522 29.5918 6.90689 28.9105 6.2761 28.6014C5.89132 28.4185 5.29837 28.3743 4.90728 28.5005Z" fill="#172646"/>
        <path d="M16.7076 28.5005C16.0452 28.7213 15.446 29.3899 15.3072 30.0649C15.036 31.3643 16.3354 32.6637 17.6348 32.3925C18.6126 32.1906 19.3695 31.194 19.2749 30.2541C19.2055 29.5918 18.7072 28.9105 18.0764 28.6014C17.6916 28.4185 17.0987 28.3743 16.7076 28.5005Z" fill="#172646"/>
        <path d="M28.5074 28.5005C27.845 28.7213 27.2458 29.3899 27.107 30.0649C26.8358 31.3643 28.1352 32.6637 29.4346 32.3925C30.4124 32.1906 31.1693 31.194 31.0747 30.2541C31.0053 29.5918 30.507 28.9105 29.8762 28.6014C29.4914 28.4185 28.8985 28.3743 28.5074 28.5005Z" fill="#172646"/>
        <path d="M40.3072 28.5005C39.6448 28.7213 39.0456 29.3899 38.9068 30.0649C38.6356 31.3643 39.935 32.6637 41.2344 32.3925C42.2122 32.1906 42.9691 31.194 42.8745 30.2541C42.8051 29.5918 42.3068 28.9105 41.676 28.6014C41.2912 28.4185 40.6983 28.3743 40.3072 28.5005Z" fill="#172646"/>
        <path d="M52.1075 28.5005C51.4451 28.7213 50.8459 29.3899 50.7071 30.0649C50.4359 31.3643 51.7353 32.6637 53.0347 32.3925C54.0125 32.1906 54.7694 31.194 54.6748 30.2541C54.6054 29.5918 54.1071 28.9105 53.4763 28.6014C53.0915 28.4185 52.4986 28.3743 52.1075 28.5005Z" fill="#172646"/>
        <path d="M63.9073 28.5005C63.2449 28.7213 62.6457 29.3899 62.5069 30.0649C62.2357 31.3643 63.5351 32.6637 64.8345 32.3925C65.8123 32.1906 66.5692 31.194 66.4746 30.2541C66.4052 29.5918 65.9069 28.9105 65.2761 28.6014C64.8913 28.4185 64.2984 28.3743 63.9073 28.5005Z" fill="#172646"/>
        <path d="M75.7071 28.5005C75.0448 28.7213 74.4455 29.3899 74.3067 30.0649C74.0355 31.3643 75.3349 32.6637 76.6344 32.3925C77.6121 32.1906 78.369 31.194 78.2744 30.2541C78.205 29.5918 77.7067 28.9105 77.0759 28.6014C76.6911 28.4185 76.0982 28.3743 75.7071 28.5005Z" fill="#172646"/>
        <path d="M87.5074 28.5005C86.845 28.7213 86.2458 29.3899 86.107 30.0649C85.8358 31.3643 87.1352 32.6637 88.4347 32.3925C89.4124 32.1906 90.1693 31.194 90.0747 30.2541C90.0053 29.5918 89.507 28.9105 88.8762 28.6014C88.4914 28.4185 87.8985 28.3743 87.5074 28.5005Z" fill="#172646"/>
        <path d="M99.3072 28.5005C98.6449 28.7213 98.0456 29.3899 97.9068 30.0649C97.6356 31.3643 98.935 32.6637 100.234 32.3925C101.212 32.1906 101.969 31.194 101.875 30.2541C101.805 29.5918 101.307 28.9105 100.676 28.6014C100.291 28.4185 99.6983 28.3743 99.3072 28.5005Z" fill="#172646"/>
        <path d="M111.107 28.5005C110.445 28.7213 109.846 29.3899 109.707 30.0649C109.436 31.3643 110.735 32.6637 112.035 32.3925C113.012 32.1906 113.769 31.194 113.675 30.2541C113.605 29.5918 113.107 28.9105 112.476 28.6014C112.092 28.4185 111.499 28.3743 111.107 28.5005Z" fill="#172646"/>
        <path d="M4.90728 40.3005C4.24495 40.5213 3.64569 41.19 3.50692 41.8649C3.23567 43.1643 4.53511 44.4638 5.83455 44.1925C6.81229 43.9907 7.56924 42.994 7.47462 42.0542C7.40523 41.3918 6.90691 40.7106 6.27611 40.4015C5.89132 40.2185 5.29838 40.1744 4.90728 40.3005Z" fill="#172646"/>
        <path d="M16.7076 40.3005C16.0452 40.5213 15.446 41.19 15.3072 41.8649C15.036 43.1643 16.3354 44.4638 17.6348 44.1925C18.6126 43.9907 19.3695 42.994 19.2749 42.0542C19.2055 41.3918 18.7072 40.7106 18.0764 40.4015C17.6916 40.2185 17.0987 40.1744 16.7076 40.3005Z" fill="#172646"/>
        <path d="M28.5074 40.3005C27.845 40.5213 27.2458 41.19 27.107 41.8649C26.8358 43.1643 28.1352 44.4638 29.4347 44.1925C30.4124 43.9907 31.1693 42.994 31.0747 42.0542C31.0053 41.3918 30.507 40.7106 29.8762 40.4015C29.4914 40.2185 28.8985 40.1744 28.5074 40.3005Z" fill="#172646"/>
        <path d="M40.3072 40.3005C39.6449 40.5213 39.0456 41.19 38.9068 41.8649C38.6356 43.1643 39.935 44.4638 41.2345 44.1925C42.2122 43.9907 42.9691 42.994 42.8745 42.0542C42.8051 41.3918 42.3068 40.7106 41.676 40.4015C41.2912 40.2185 40.6983 40.1744 40.3072 40.3005Z" fill="#172646"/>
        <path d="M52.1075 40.3005C51.4451 40.5213 50.8459 41.19 50.7071 41.8649C50.4359 43.1643 51.7353 44.4638 53.0347 44.1925C54.0125 43.9907 54.7694 42.994 54.6748 42.0542C54.6054 41.3918 54.1071 40.7106 53.4763 40.4015C53.0915 40.2185 52.4986 40.1744 52.1075 40.3005Z" fill="#172646"/>
        <path d="M63.9073 40.3005C63.2449 40.5213 62.6457 41.19 62.5069 41.8649C62.2357 43.1643 63.5351 44.4638 64.8345 44.1925C65.8123 43.9907 66.5692 42.994 66.4746 42.0542C66.4052 41.3918 65.9069 40.7106 65.2761 40.4015C64.8913 40.2185 64.2984 40.1744 63.9073 40.3005Z" fill="#172646"/>
        <path d="M75.7071 40.3005C75.0448 40.5213 74.4455 41.19 74.3067 41.8649C74.0355 43.1643 75.3349 44.4638 76.6344 44.1925C77.6121 43.9907 78.3691 42.994 78.2744 42.0542C78.2051 41.3918 77.7067 40.7106 77.0759 40.4015C76.6911 40.2185 76.0982 40.1744 75.7071 40.3005Z" fill="#172646"/>
        <path d="M87.5074 40.3005C86.845 40.5213 86.2458 41.19 86.107 41.8649C85.8358 43.1643 87.1352 44.4638 88.4347 44.1925C89.4124 43.9907 90.1694 42.994 90.0747 42.0542C90.0053 41.3918 89.507 40.7106 88.8762 40.4015C88.4914 40.2185 87.8985 40.1744 87.5074 40.3005Z" fill="#172646"/>
        <path d="M99.3072 40.3005C98.6449 40.5213 98.0456 41.19 97.9068 41.8649C97.6356 43.1643 98.935 44.4638 100.234 44.1925C101.212 43.9907 101.969 42.994 101.875 42.0542C101.805 41.3918 101.307 40.7106 100.676 40.4015C100.291 40.2185 99.6983 40.1744 99.3072 40.3005Z" fill="#172646"/>
        <path d="M111.107 40.3005C110.445 40.5213 109.846 41.19 109.707 41.8649C109.436 43.1643 110.735 44.4638 112.035 44.1925C113.012 43.9907 113.769 42.994 113.675 42.0542C113.605 41.3918 113.107 40.7106 112.476 40.4015C112.092 40.2185 111.499 40.1744 111.107 40.3005Z" fill="#172646"/>
        <path d="M4.90728 52.1006C4.24495 52.3214 3.64569 52.99 3.50692 53.665C3.23568 54.9644 4.53511 56.2638 5.83455 55.9926C6.81228 55.7907 7.56923 54.7941 7.47461 53.8542C7.40522 53.1919 6.90689 52.5106 6.2761 52.2015C5.89132 52.0186 5.29837 51.9744 4.90728 52.1006Z" fill="#172646"/>
        <path d="M16.7076 52.1006C16.0452 52.3214 15.446 52.99 15.3072 53.665C15.036 54.9644 16.3354 56.2638 17.6348 55.9926C18.6126 55.7907 19.3695 54.7941 19.2749 53.8542C19.2055 53.1919 18.7072 52.5106 18.0764 52.2015C17.6916 52.0186 17.0987 51.9744 16.7076 52.1006Z" fill="#172646"/>
        <path d="M28.5074 52.1006C27.845 52.3214 27.2458 52.99 27.107 53.665C26.8358 54.9644 28.1352 56.2638 29.4346 55.9926C30.4124 55.7907 31.1693 54.7941 31.0747 53.8542C31.0053 53.1919 30.507 52.5106 29.8762 52.2015C29.4914 52.0186 28.8985 51.9744 28.5074 52.1006Z" fill="#172646"/>
        <path d="M40.3072 52.1006C39.6448 52.3214 39.0456 52.99 38.9068 53.665C38.6356 54.9644 39.935 56.2638 41.2344 55.9926C42.2122 55.7907 42.9691 54.7941 42.8745 53.8542C42.8051 53.1919 42.3068 52.5106 41.676 52.2015C41.2912 52.0186 40.6983 51.9744 40.3072 52.1006Z" fill="#172646"/>
        <path d="M52.1075 52.1006C51.4451 52.3214 50.8459 52.99 50.7071 53.665C50.4359 54.9644 51.7353 56.2638 53.0347 55.9926C54.0125 55.7907 54.7694 54.7941 54.6748 53.8542C54.6054 53.1919 54.1071 52.5106 53.4763 52.2015C53.0915 52.0186 52.4986 51.9744 52.1075 52.1006Z" fill="#172646"/>
        <path d="M63.9073 52.1006C63.2449 52.3214 62.6457 52.99 62.5069 53.665C62.2357 54.9644 63.5351 56.2638 64.8345 55.9926C65.8123 55.7907 66.5692 54.7941 66.4746 53.8542C66.4052 53.1919 65.9069 52.5106 65.2761 52.2015C64.8913 52.0186 64.2984 51.9744 63.9073 52.1006Z" fill="#172646"/>
        <path d="M75.7071 52.1006C75.0448 52.3214 74.4455 52.99 74.3067 53.665C74.0355 54.9644 75.3349 56.2638 76.6344 55.9926C77.6121 55.7907 78.369 54.7941 78.2744 53.8542C78.205 53.1919 77.7067 52.5106 77.0759 52.2015C76.6911 52.0186 76.0982 51.9744 75.7071 52.1006Z" fill="#172646"/>
        <path d="M87.5074 52.1006C86.845 52.3214 86.2458 52.99 86.107 53.665C85.8358 54.9644 87.1352 56.2638 88.4347 55.9926C89.4124 55.7907 90.1693 54.7941 90.0747 53.8542C90.0053 53.1919 89.507 52.5106 88.8762 52.2015C88.4914 52.0186 87.8985 51.9744 87.5074 52.1006Z" fill="#172646"/>
        <path d="M99.3072 52.1006C98.6449 52.3214 98.0456 52.99 97.9068 53.665C97.6356 54.9644 98.935 56.2638 100.234 55.9926C101.212 55.7907 101.969 54.7941 101.875 53.8542C101.805 53.1919 101.307 52.5106 100.676 52.2015C100.291 52.0186 99.6983 51.9744 99.3072 52.1006Z" fill="#172646"/>
        <path d="M111.107 52.1006C110.445 52.3214 109.846 52.99 109.707 53.665C109.436 54.9644 110.735 56.2638 112.035 55.9926C113.012 55.7907 113.769 54.7941 113.675 53.8542C113.605 53.1919 113.107 52.5106 112.476 52.2015C112.092 52.0186 111.499 51.9744 111.107 52.1006Z" fill="#172646"/>
        <path d="M4.90728 63.9006C4.24494 64.1214 3.64569 64.7901 3.50692 65.465C3.23568 66.7644 4.53511 68.0639 5.83454 67.7926C6.81227 67.5908 7.56922 66.5941 7.4746 65.6542C7.40521 64.9919 6.90689 64.3107 6.2761 64.0016C5.89131 63.8186 5.29837 63.7745 4.90728 63.9006Z" fill="#172646"/>
        <path d="M16.7076 63.9006C16.0452 64.1214 15.446 64.7901 15.3072 65.465C15.036 66.7644 16.3354 68.0639 17.6348 67.7926C18.6126 67.5908 19.3695 66.5941 19.2749 65.6542C19.2055 64.9919 18.7072 64.3107 18.0764 64.0016C17.6916 63.8186 17.0987 63.7745 16.7076 63.9006Z" fill="#172646"/>
        <path d="M28.5074 63.9006C27.845 64.1214 27.2458 64.7901 27.107 65.465C26.8358 66.7644 28.1352 68.0639 29.4346 67.7926C30.4124 67.5908 31.1693 66.5941 31.0747 65.6542C31.0053 64.9919 30.507 64.3107 29.8762 64.0016C29.4914 63.8186 28.8985 63.7745 28.5074 63.9006Z" fill="#172646"/>
        <path d="M40.3072 63.9006C39.6448 64.1214 39.0456 64.7901 38.9068 65.465C38.6356 66.7644 39.935 68.0639 41.2344 67.7926C42.2122 67.5908 42.9691 66.5941 42.8745 65.6542C42.8051 64.9919 42.3068 64.3107 41.676 64.0016C41.2912 63.8186 40.6983 63.7745 40.3072 63.9006Z" fill="#172646"/>
        <path d="M52.1075 63.9006C51.4451 64.1214 50.8459 64.7901 50.7071 65.465C50.4359 66.7644 51.7353 68.0639 53.0347 67.7926C54.0125 67.5908 54.7694 66.5941 54.6748 65.6542C54.6054 64.9919 54.1071 64.3107 53.4763 64.0016C53.0915 63.8186 52.4986 63.7745 52.1075 63.9006Z" fill="#172646"/>
        <path d="M63.9073 63.9006C63.2449 64.1214 62.6457 64.7901 62.5069 65.465C62.2357 66.7644 63.5351 68.0639 64.8345 67.7926C65.8122 67.5908 66.5692 66.5941 66.4746 65.6542C66.4052 64.9919 65.9069 64.3107 65.2761 64.0016C64.8913 63.8186 64.2984 63.7745 63.9073 63.9006Z" fill="#172646"/>
        <path d="M75.7071 63.9006C75.0448 64.1214 74.4455 64.7901 74.3067 65.465C74.0355 66.7644 75.3349 68.0639 76.6344 67.7926C77.6121 67.5908 78.369 66.5941 78.2744 65.6542C78.205 64.9919 77.7067 64.3107 77.0759 64.0016C76.6911 63.8186 76.0982 63.7745 75.7071 63.9006Z" fill="#172646"/>
        <path d="M87.5074 63.9006C86.845 64.1214 86.2458 64.7901 86.107 65.465C85.8358 66.7644 87.1352 68.0639 88.4346 67.7926C89.4124 67.5908 90.1693 66.5941 90.0747 65.6542C90.0053 64.9919 89.507 64.3107 88.8762 64.0016C88.4914 63.8186 87.8985 63.7745 87.5074 63.9006Z" fill="#172646"/>
        <path d="M99.3072 63.9006C98.6449 64.1214 98.0456 64.7901 97.9068 65.465C97.6356 66.7644 98.935 68.0639 100.234 67.7926C101.212 67.5908 101.969 66.5941 101.875 65.6542C101.805 64.9919 101.307 64.3107 100.676 64.0016C100.291 63.8186 99.6983 63.7745 99.3072 63.9006Z" fill="#172646"/>
        <path d="M111.107 63.9006C110.445 64.1214 109.846 64.7901 109.707 65.465C109.436 66.7644 110.735 68.0639 112.035 67.7926C113.012 67.5908 113.769 66.5941 113.675 65.6542C113.605 64.9919 113.107 64.3107 112.476 64.0016C112.092 63.8186 111.499 63.7745 111.107 63.9006Z" fill="#172646"/>
        <path d="M4.90729 75.7007C4.24495 75.9215 3.64569 76.5901 3.50692 77.2651C3.23567 78.5645 4.53512 79.8639 5.83456 79.5927C6.8123 79.3908 7.56926 78.3942 7.47464 77.4543C7.40525 76.792 6.90692 76.1107 6.27612 75.8016C5.89133 75.6187 5.29838 75.5745 4.90729 75.7007Z" fill="#172646"/>
        <path d="M16.7076 75.7007C16.0452 75.9215 15.446 76.5901 15.3072 77.2651C15.036 78.5645 16.3354 79.8639 17.6349 79.5927C18.6126 79.3908 19.3696 78.3942 19.2749 77.4543C19.2055 76.792 18.7072 76.1107 18.0764 75.8016C17.6916 75.6187 17.0987 75.5745 16.7076 75.7007Z" fill="#172646"/>
        <path d="M28.5017 75.7164C27.8418 75.9363 27.2447 76.6026 27.1064 77.275C26.9493 78.0104 27.3075 78.8086 27.9989 79.28C28.6714 79.745 29.4382 79.7513 30.1169 79.2988C31.2294 78.5572 31.3802 77.1745 30.45 76.2506C29.9158 75.7101 29.149 75.5027 28.5017 75.7164Z" fill="#172646"/>
        <path d="M40.302 75.7164C39.6421 75.9363 39.045 76.6026 38.9067 77.275C38.7496 78.0104 39.1078 78.8086 39.7992 79.28C40.4717 79.745 41.2384 79.7513 41.9172 79.2988C43.0297 78.5572 43.1805 77.1745 42.2503 76.2506C41.7161 75.7101 40.9493 75.5027 40.302 75.7164Z" fill="#172646"/>
        <path d="M52.1077 75.7012C51.1553 76.0165 50.5119 77.0636 50.7074 77.9844C50.8651 78.735 51.5652 79.4351 52.3158 79.5928C53.5331 79.8514 54.8009 78.6972 54.6748 77.4546C54.6054 76.7923 54.1071 76.1111 53.4764 75.8021C53.0916 75.6192 52.4987 75.575 52.1077 75.7012Z" fill="#172646"/>
        <path d="M63.9075 75.7012C62.9551 76.0165 62.3117 77.0636 62.5072 77.9844C62.6649 78.735 63.365 79.4351 64.1156 79.5928C65.3329 79.8514 66.6007 78.6972 66.4746 77.4546C66.4052 76.7923 65.9069 76.1111 65.2762 75.8021C64.8914 75.6192 64.2985 75.575 63.9075 75.7012Z" fill="#172646"/>
        <path d="M75.7078 75.7012C74.7554 76.0165 74.112 77.0636 74.3075 77.9844C74.4652 78.735 75.1653 79.4351 75.9159 79.5928C77.1332 79.8514 78.401 78.6972 78.2748 77.4546C78.2055 76.7923 77.7072 76.1111 77.0765 75.8021C76.6917 75.6192 76.0988 75.575 75.7078 75.7012Z" fill="#172646"/>
        <path d="M87.5076 75.7012C86.5552 76.0165 85.9118 77.0636 86.1073 77.9844C86.265 78.735 86.9651 79.4351 87.7157 79.5928C88.933 79.8514 90.2008 78.6972 90.0747 77.4546C90.0053 76.7923 89.507 76.1111 88.8763 75.8021C88.4915 75.6192 87.8986 75.575 87.5076 75.7012Z" fill="#172646"/>
        <path d="M99.3072 75.7007C98.6449 75.9215 98.0456 76.5901 97.9068 77.2651C97.6356 78.5645 98.935 79.8639 100.234 79.5927C101.212 79.3908 101.969 78.3942 101.875 77.4543C101.805 76.792 101.307 76.1107 100.676 75.8016C100.291 75.6187 99.6983 75.5745 99.3072 75.7007Z" fill="#172646"/>
        <path d="M111.107 75.7007C110.445 75.9215 109.846 76.5901 109.707 77.2651C109.436 78.5645 110.735 79.8639 112.035 79.5927C113.013 79.3908 113.769 78.3942 113.675 77.4543C113.605 76.792 113.107 76.1107 112.476 75.8016C112.092 75.6187 111.499 75.5745 111.107 75.7007Z" fill="#172646"/>
        <path d="M4.90728 87.5005C4.24494 87.7213 3.64569 88.3899 3.50692 89.0649C3.23568 90.3643 4.53511 91.6637 5.83454 91.3925C6.81227 91.1906 7.56922 90.194 7.4746 89.2541C7.40522 88.5918 6.90689 87.9105 6.2761 87.6014C5.89131 87.4185 5.29837 87.3743 4.90728 87.5005Z" fill="#172646"/>
        <path d="M16.7076 87.5005C16.0452 87.7213 15.446 88.3899 15.3072 89.0649C15.036 90.3643 16.3354 91.6637 17.6348 91.3925C18.6126 91.1906 19.3695 90.194 19.2749 89.2541C19.2055 88.5918 18.7072 87.9105 18.0764 87.6014C17.6916 87.4185 17.0987 87.3743 16.7076 87.5005Z" fill="#172646"/>
        <path d="M28.5017 87.5164C27.8418 87.7364 27.2447 88.4026 27.1064 89.0751C26.9493 89.8104 27.3075 90.6086 27.9989 91.08C28.6714 91.5451 29.4382 91.5514 30.117 91.0989C31.2294 90.3572 31.3803 88.9745 30.4501 88.0506C29.9158 87.5101 29.1491 87.3027 28.5017 87.5164Z" fill="#172646"/>
        <path d="M40.302 87.5164C39.6421 87.7364 39.045 88.4026 38.9067 89.0751C38.7496 89.8104 39.1078 90.6086 39.7992 91.08C40.4717 91.5451 41.2385 91.5514 41.9173 91.0989C43.0297 90.3572 43.1806 88.9745 42.2504 88.0506C41.7161 87.5101 40.9494 87.3027 40.302 87.5164Z" fill="#172646"/>
        <path d="M52.1077 87.5012C51.1553 87.8166 50.5119 88.8636 50.7074 89.7845C50.8651 90.5351 51.5652 91.2352 52.3158 91.3929C53.5331 91.6515 54.8009 90.4972 54.6748 89.2547C54.6054 88.5924 54.1071 87.9112 53.4764 87.6021C53.0916 87.4192 52.4987 87.3751 52.1077 87.5012Z" fill="#172646"/>
        <path d="M63.9075 87.5012C62.9551 87.8166 62.3117 88.8636 62.5072 89.7845C62.6649 90.5351 63.365 91.2352 64.1156 91.3929C65.3329 91.6515 66.6007 90.4972 66.4746 89.2547C66.4052 88.5924 65.9069 87.9112 65.2762 87.6021C64.8914 87.4192 64.2985 87.3751 63.9075 87.5012Z" fill="#172646"/>
        <path d="M75.7078 87.5012C74.7553 87.8166 74.112 88.8636 74.3075 89.7845C74.4652 90.5351 75.1653 91.2352 75.9159 91.3929C77.1332 91.6515 78.401 90.4972 78.2748 89.2547C78.2054 88.5924 77.7072 87.9112 77.0764 87.6021C76.6917 87.4192 76.0988 87.3751 75.7078 87.5012Z" fill="#172646"/>
        <path d="M87.5076 87.5012C86.5552 87.8166 85.9118 88.8636 86.1073 89.7845C86.265 90.5351 86.9651 91.2352 87.7157 91.3929C88.933 91.6515 90.2008 90.4972 90.0747 89.2547C90.0053 88.5924 89.507 87.9112 88.8763 87.6021C88.4915 87.4192 87.8986 87.3751 87.5076 87.5012Z" fill="#172646"/>
        <path d="M99.3072 87.5005C98.6449 87.7213 98.0456 88.3899 97.9068 89.0649C97.6356 90.3643 98.935 91.6637 100.234 91.3925C101.212 91.1906 101.969 90.194 101.875 89.2541C101.805 88.5918 101.307 87.9105 100.676 87.6014C100.291 87.4185 99.6983 87.3743 99.3072 87.5005Z" fill="#172646"/>
        <path d="M111.107 87.5005C110.445 87.7213 109.846 88.3899 109.707 89.0649C109.436 90.3643 110.735 91.6637 112.035 91.3925C113.012 91.1906 113.769 90.194 113.675 89.2541C113.605 88.5918 113.107 87.9105 112.476 87.6014C112.092 87.4185 111.499 87.3743 111.107 87.5005Z" fill="#172646"/>
        <path d="M4.90728 99.3005C4.24495 99.5213 3.64569 100.19 3.50692 100.865C3.23568 102.164 4.53511 103.464 5.83455 103.193C6.81228 102.991 7.56923 101.994 7.47461 101.054C7.40522 100.392 6.90689 99.7106 6.2761 99.4015C5.89132 99.2185 5.29837 99.1744 4.90728 99.3005Z" fill="#172646"/>
        <path d="M16.7076 99.3005C16.0452 99.5213 15.446 100.19 15.3072 100.865C15.036 102.164 16.3354 103.464 17.6348 103.193C18.6126 102.991 19.3695 101.994 19.2749 101.054C19.2055 100.392 18.7072 99.7106 18.0764 99.4015C17.6916 99.2185 17.0987 99.1744 16.7076 99.3005Z" fill="#172646"/>
        <path d="M28.5017 99.3165C27.8418 99.5364 27.2447 100.203 27.1064 100.875C26.9493 101.61 27.3075 102.409 27.9989 102.88C28.6714 103.345 29.4382 103.351 30.117 102.899C31.2294 102.157 31.3802 100.775 30.4501 99.8507C29.9158 99.3102 29.1491 99.1028 28.5017 99.3165Z" fill="#172646"/>
        <path d="M40.302 99.3165C39.6421 99.5364 39.045 100.203 38.9067 100.875C38.7496 101.61 39.1078 102.409 39.7992 102.88C40.4717 103.345 41.2385 103.351 41.9172 102.899C43.0297 102.157 43.1805 100.775 42.2503 99.8507C41.7161 99.3102 40.9493 99.1028 40.302 99.3165Z" fill="#172646"/>
        <path d="M52.1075 99.3005C51.4451 99.5213 50.8459 100.19 50.7071 100.865C50.4359 102.164 51.7353 103.464 53.0347 103.193C54.0125 102.991 54.7694 101.994 54.6748 101.054C54.6054 100.392 54.1071 99.7106 53.4763 99.4015C53.0915 99.2185 52.4986 99.1744 52.1075 99.3005Z" fill="#172646"/>
        <path d="M63.9073 99.3005C63.2449 99.5213 62.6457 100.19 62.5069 100.865C62.2357 102.164 63.5351 103.464 64.8345 103.193C65.8123 102.991 66.5692 101.994 66.4746 101.054C66.4052 100.392 65.9069 99.7106 65.2761 99.4015C64.8913 99.2185 64.2984 99.1744 63.9073 99.3005Z" fill="#172646"/>
        <path d="M75.7071 99.3005C75.0448 99.5213 74.4455 100.19 74.3067 100.865C74.0355 102.164 75.3349 103.464 76.6344 103.193C77.6121 102.991 78.369 101.994 78.2744 101.054C78.205 100.392 77.7067 99.7106 77.0759 99.4015C76.6911 99.2185 76.0982 99.1744 75.7071 99.3005Z" fill="#172646"/>
        <path d="M87.5074 99.3005C86.845 99.5213 86.2458 100.19 86.107 100.865C85.8358 102.164 87.1352 103.464 88.4347 103.193C89.4124 102.991 90.1693 101.994 90.0747 101.054C90.0053 100.392 89.507 99.7106 88.8762 99.4015C88.4914 99.2185 87.8985 99.1744 87.5074 99.3005Z" fill="#172646"/>
        <path d="M99.3072 99.3005C98.6449 99.5213 98.0456 100.19 97.9068 100.865C97.6356 102.164 98.935 103.464 100.234 103.193C101.212 102.991 101.969 101.994 101.875 101.054C101.805 100.392 101.307 99.7106 100.676 99.4015C100.291 99.2185 99.6983 99.1744 99.3072 99.3005Z" fill="#172646"/>
        <path d="M111.107 99.3005C110.445 99.5213 109.846 100.19 109.707 100.865C109.436 102.164 110.735 103.464 112.035 103.193C113.012 102.991 113.769 101.994 113.675 101.054C113.605 100.392 113.107 99.7106 112.476 99.4015C112.092 99.2185 111.499 99.1744 111.107 99.3005Z" fill="#172646"/>
        <path d="M4.90728 111.101C4.24495 111.321 3.64569 111.99 3.50692 112.665C3.23568 113.964 4.53511 115.264 5.83455 114.993C6.81228 114.791 7.56923 113.794 7.47461 112.854C7.40523 112.192 6.9069 111.511 6.2761 111.202C5.89132 111.019 5.29837 110.974 4.90728 111.101Z" fill="#172646"/>
        <path d="M16.7076 111.101C16.0452 111.321 15.446 111.99 15.3072 112.665C15.036 113.964 16.3354 115.264 17.6348 114.993C18.6126 114.791 19.3695 113.794 19.2749 112.854C19.2055 112.192 18.7072 111.511 18.0764 111.202C17.6916 111.019 17.0987 110.974 16.7076 111.101Z" fill="#172646"/>
        <path d="M28.5074 111.101C27.845 111.321 27.2458 111.99 27.107 112.665C26.8358 113.964 28.1352 115.264 29.4346 114.993C30.4124 114.791 31.1693 113.794 31.0747 112.854C31.0053 112.192 30.507 111.511 29.8762 111.202C29.4914 111.019 28.8985 110.974 28.5074 111.101Z" fill="#172646"/>
        <path d="M40.3072 111.101C39.6448 111.321 39.0456 111.99 38.9068 112.665C38.6356 113.964 39.935 115.264 41.2345 114.993C42.2122 114.791 42.9691 113.794 42.8745 112.854C42.8051 112.192 42.3068 111.511 41.676 111.202C41.2912 111.019 40.6983 110.974 40.3072 111.101Z" fill="#172646"/>
        <path d="M52.1075 111.101C51.4451 111.321 50.8459 111.99 50.7071 112.665C50.4359 113.964 51.7353 115.264 53.0347 114.993C54.0125 114.791 54.7694 113.794 54.6748 112.854C54.6054 112.192 54.1071 111.511 53.4763 111.202C53.0915 111.019 52.4986 110.974 52.1075 111.101Z" fill="#172646"/>
        <path d="M63.9073 111.101C63.2449 111.321 62.6457 111.99 62.5069 112.665C62.2357 113.964 63.5351 115.264 64.8345 114.993C65.8123 114.791 66.5692 113.794 66.4746 112.854C66.4052 112.192 65.9069 111.511 65.2761 111.202C64.8913 111.019 64.2984 110.974 63.9073 111.101Z" fill="#172646"/>
        <path d="M75.7071 111.101C75.0448 111.321 74.4455 111.99 74.3067 112.665C74.0355 113.964 75.3349 115.264 76.6344 114.993C77.6121 114.791 78.3691 113.794 78.2744 112.854C78.205 112.192 77.7067 111.511 77.0759 111.202C76.6911 111.019 76.0982 110.974 75.7071 111.101Z" fill="#172646"/>
        <path d="M87.5074 111.101C86.845 111.321 86.2458 111.99 86.107 112.665C85.8358 113.964 87.1352 115.264 88.4347 114.993C89.4124 114.791 90.1693 113.794 90.0747 112.854C90.0053 112.192 89.507 111.511 88.8762 111.202C88.4914 111.019 87.8985 110.974 87.5074 111.101Z" fill="#172646"/>
        <path d="M99.3072 111.101C98.6449 111.321 98.0456 111.99 97.9068 112.665C97.6356 113.964 98.935 115.264 100.234 114.993C101.212 114.791 101.969 113.794 101.875 112.854C101.805 112.192 101.307 111.511 100.676 111.202C100.291 111.019 99.6983 110.974 99.3072 111.101Z" fill="#172646"/>
        <path d="M111.107 111.101C110.445 111.321 109.846 111.99 109.707 112.665C109.436 113.964 110.735 115.264 112.035 114.993C113.012 114.791 113.769 113.794 113.675 112.854C113.605 112.192 113.107 111.511 112.476 111.202C112.092 111.019 111.499 110.974 111.107 111.101Z" fill="#172646"/>
    </g>
</svg>